<svg width="1024" height="768" viewBox="0 0 1024 768" xmlns="http://www.w3.org/2000/svg">
  <!-- Simple geometric illustration evoking circuits -->
  <defs>
    <linearGradient id="grad" x1="0%" y1="0%" x2="100%" y2="100%">
      <stop offset="0%" stop-color="#2563EB" stop-opacity="0.85" />
      <stop offset="100%" stop-color="#1E293B" stop-opacity="0.95" />
    </linearGradient>
    <linearGradient id="pulse" x1="0%" y1="50%" x2="100%" y2="50%">
      <stop offset="0%" stop-color="#60A5FA" stop-opacity="0.15" />
      <stop offset="50%" stop-color="#2563EB" stop-opacity="0.3" />
      <stop offset="100%" stop-color="#38BDF8" stop-opacity="0.15" />
    </linearGradient>
  </defs>
  <rect width="1024" height="768" fill="url(#grad)" />
  <g stroke="#93C5FD" stroke-width="2" stroke-linecap="round" opacity="0.6">
    <path d="M120 160 H320 V240 H520 V320 H720" />
    <path d="M220 360 H420 V440 H620 V520 H820" />
    <path d="M80 520 H280 V600 H480 V680 H680" />
  </g>
  <g fill="none" stroke="#38BDF8" stroke-width="3" stroke-linecap="round" opacity="0.6">
    <path d="M160 440 Q320 360 480 440 T800 440" />
    <path d="M160 300 Q320 220 480 300 T800 300" stroke="url(#pulse)" />
  </g>
  <g fill="#0F172A" opacity="0.7">
    <rect x="380" y="180" width="80" height="160" rx="12" />
    <rect x="560" y="260" width="80" height="160" rx="12" />
    <rect x="740" y="340" width="80" height="160" rx="12" />
  </g>
  <g stroke="#BFDBFE" stroke-width="2" opacity="0.4">
    <circle cx="220" cy="160" r="12" />
    <circle cx="420" cy="240" r="12" />
    <circle cx="620" cy="320" r="12" />
    <circle cx="820" cy="400" r="12" />
    <circle cx="520" cy="600" r="16" />
  </g>
</svg>

