<svg width="800" height="520" viewBox="0 0 800 520" xmlns="http://www.w3.org/2000/svg">
  <defs>
    <linearGradient id="bgWave" x1="0%" y1="0%" x2="100%" y2="100%">
      <stop offset="0%" stop-color="#111827" />
      <stop offset="100%" stop-color="#1E293B" />
    </linearGradient>
    <linearGradient id="wave" x1="0%" y1="50%" x2="100%" y2="50%">
      <stop offset="0%" stop-color="#38BDF8" />
      <stop offset="50%" stop-color="#2563EB" />
      <stop offset="100%" stop-color="#38BDF8" />
    </linearGradient>
  </defs>
  <rect width="800" height="520" rx="32" fill="url(#bgWave)" />
  <rect x="60" y="80" width="680" height="360" rx="24" fill="#0B1220" stroke="#1F2937" stroke-width="2" />
  <g transform="translate(120,140)" stroke-width="2">
    <rect width="560" height="240" rx="16" fill="#111C30" stroke="rgba(148,163,184,0.4)" />
    <polyline
      points="0,180 60,120 120,120 180,60 240,220 300,180 360,80 420,160 480,60 540,120 560,80"
      fill="none"
      stroke="url(#wave)"
      stroke-width="4"
      stroke-linecap="round"
      stroke-linejoin="round"
    />
    <g stroke="rgba(96,165,250,0.3)">
      <line x1="0" y1="60" x2="560" y2="60" stroke-dasharray="8 10" />
      <line x1="0" y1="120" x2="560" y2="120" stroke-dasharray="8 10" />
      <line x1="0" y1="180" x2="560" y2="180" stroke-dasharray="8 10" />
    </g>
  </g>
  <g transform="translate(120,400)" fill="#38BDF8" opacity="0.7">
    <rect width="80" height="24" rx="12" />
    <rect x="100" width="80" height="24" rx="12" opacity="0.7" />
    <rect x="200" width="80" height="24" rx="12" opacity="0.5" />
    <rect x="300" width="80" height="24" rx="12" opacity="0.4" />
  </g>
</svg>

